{"title":"Khiladi 786 (2012) Hindi DVDRip XviD - Exclusive","uid":8003314,"size":741020911,"categoryP":"video","categoryS":"movies","magnet":"?xt=urn:btih:a190499379fc3e1ede0dbb62a68badf8576c82ae&amp;dn=Khiladi+786+%282012%29+Hindi+DVDRip+XviD+-+Exclusive&amp;tr=udp%3A%2F%2Ftracker.openbittorrent.com%3A80&amp;tr=udp%3A%2F%2Fopen.demonii.com%3A1337&amp;tr=udp%3A%2F%2Ftracker.coppersurfer.tk%3A6969&amp;tr=udp%3A%2F%2Fexodus.desync.com%3A6969","seeders":1,"leechers":0,"uploader":"tykoon123","files":-1,"time":1357826098,"description":"Poster: &lt;a href=&quot;\nhttp://imgr.us/images/s7k5tmr8cpyi7zscdku6.jpg&quot; rel=&quot;nofollow&quot; target=&quot;_NEW&quot;&gt;\nhttp://imgr.us/images/s7k5tmr8cpyi7zscdku6.jpg&lt;/a&gt;\n\nInfo:\n\n\nFormat : AVI\nFormat/Info : Audio Video Interleave\nFile size : 695 MiB\nDuration : 2h 19mn\nOverall bit rate : 695 Kbps\nWriting library : VirtualDub build 24463/release\n\nVideo\n\nCodec ID : XVID\nCodec ID/Hint : XviD\nDuration : 2h 19mn\nBit rate : 562 Kbps\nWidth : 688 pixels\nHeight : 288 pixels\nDisplay aspect ratio : 2.40:1\nFrame rate : 23.976 fps\nColor space : YUV\nChroma subsampling : 4:2:0\nBit depth : 8 bits\nScan type : Progressive\nCompression mode : Lossy\nBits/(Pixel*Frame) : 0.118\nStream size : 562 MiB (81%)\n\nAudio\n\nCodec ID : 2000\nDuration : 2h 19mn\nBit rate mode : Constant\nBit rate : 128 Kbps\nChannel(s) : 6 channels\nChannel positions : Front: L C R, Side: L R, LFE\nSampling rate : 48.0 KHz\nBit depth : 16 bits\nCompression mode : Lossy\nStream size : 128 MiB (18%)\n\nScreens: &lt;a href=&quot;\nhttp://www.shotpix.com/images/62405540138741433969.jpeg&quot; rel=&quot;nofollow&quot; target=&quot;_NEW&quot;&gt;\nhttp://www.shotpix.com/images/62405540138741433969.jpeg&lt;/a&gt; &lt;a href=&quot;\nhttp://www.shotpix.com/images/04776881858387398177.jpeg&quot; rel=&quot;nofollow&quot; target=&quot;_NEW&quot;&gt;\nhttp://www.shotpix.com/images/04776881858387398177.jpeg&lt;/a&gt; &lt;a href=&quot;\nhttp://www.shotpix.com/images/66168595367918800001.jpeg&quot; rel=&quot;nofollow&quot; target=&quot;_NEW&quot;&gt;\nhttp://www.shotpix.com/images/66168595367918800001.jpeg&lt;/a&gt; &lt;a href=&quot;\nhttp://www.shotpix.com/images/22619635356336997948.jpeg&quot; rel=&quot;nofollow&quot; target=&quot;_NEW&quot;&gt;\nhttp://www.shotpix.com/images/22619635356336997948.jpeg&lt;/a&gt; &lt;a href=&quot;\nhttp://www.shotpix.com/images/45653481645708255090.jpeg&quot; rel=&quot;nofollow&quot; target=&quot;_NEW&quot;&gt;\nhttp://www.shotpix.com/images/45653481645708255090.jpeg&lt;/a&gt; &lt;a href=&quot;\nhttp://www.shotpix.com/images/68815550263031120613.jpeg&quot; rel=&quot;nofollow&quot; target=&quot;_NEW&quot;&gt;\nhttp://www.shotpix.com/images/68815550263031120613.jpeg&lt;/a&gt;\n\n\n\n\n\n","torrent":{"xt":"urn:btih:a190499379fc3e1ede0dbb62a68badf8576c82ae","amp;dn":"Khiladi+786+%282012%29+Hindi+DVDRip+XviD+-+Exclusive","amp;tr":["udp%3A%2F%2Ftracker.openbittorrent.com%3A80","udp%3A%2F%2Fopen.demonii.com%3A1337","udp%3A%2F%2Ftracker.coppersurfer.tk%3A6969","udp%3A%2F%2Fexodus.desync.com%3A6969"],"infoHash":"a190499379fc3e1ede0dbb62a68badf8576c82ae","infoHashBuffer":{"type":"Buffer","data":[161,144,73,147,121,252,62,30,222,13,187,98,166,139,173,248,87,108,130,174]},"announce":[],"urlList":[]}}